<?xml version="1.0" encoding="UTF-8" standalone="no"?>
<svg xmlns="http://www.w3.org/2000/svg" width="64" height="64" viewBox="0 0 16.933 16.933">
    <defs>
        <radialGradient id="goldFace" cx="50%" cy="40%" r="80%">
            <stop offset="0%" stop-color="#FFE9B0" />
            <stop offset="45%" stop-color="#F7C85D" />
            <stop offset="85%" stop-color="#D39A28" />
            <stop offset="100%" stop-color="#A87312" />
        </radialGradient>
        <radialGradient id="goldFaceInner" cx="50%" cy="40%" r="80%">
            <stop offset="0%" stop-color="#C2A05A" />
            <stop offset="45%" stop-color="#A67C2B" />
            <stop offset="85%" stop-color="#7C5A18" />
            <stop offset="100%" stop-color="#5A3C0F" />
        </radialGradient>
        <linearGradient id="wingGold" x1="0" y1="0" x2="0" y2="1">
            <stop offset="0%" stop-color="#FFF4C6" />
            <stop offset="65%" stop-color="#F1C760" />
            <stop offset="100%" stop-color="#C58F1F" />
        </linearGradient>
    </defs>

    <!-- Wings -->
    <path id="wing-left" fill="url(#wingGold)" stroke="#9E6E14" stroke-width=".12" stroke-linejoin="round"
        d="m 3.5675162,9.7835563 0.1598247,0.00571 M 4.5264644,5.2456757 4.880362,5.2799239 M 4.6012494,5.2470388 C 4.4155572,5.2057568 4.1304159,4.9723188 2.6961708,2.5185786 2.5899653,2.8485278 1.7561069,3.4566341 3.0836444,5.18246 2.8532997,5.2790478 2.3342002,4.5881226 1.8808617,4.0765456 1.6293789,4.9379079 1.9521229,5.6557135 2.9060523,6.2157228 2.782902,6.2280193 2.8735558,6.3701254 1.5983288,5.6829467 1.5569889,6.7073278 2.3021849,6.8846703 3.0836444,7.0229597 2.9099586,7.1290427 2.0861398,6.927168 1.5498945,6.8615123 1.6180937,7.2969455 1.7908842,7.7013887 3.0029208,7.7979071 2.920802,7.9238307 2.2046321,7.9228996 1.7194143,7.9109202 1.7876689,8.5315835 2.462547,8.757062 3.1805128,8.83117 3.1247564,8.9519709 2.6740606,8.8894743 2.4055655,8.9522556 2.3948777,9.5612634 2.8719389,9.7398769 3.3258154,9.7998541 l 0.2906052,-10e-8" />
    <path id="wing-right" fill="url(#wingGold)" stroke="#9E6E14" stroke-width=".12" stroke-linejoin="round"
        d="m 12.814518,5.7593981 0.582218,0.011417 2.146218,-2.3231665 c 0.338242,1.3384998 -0.231499,2.0924081 -0.993196,2.7227284 0.196528,0.00711 0.943722,-0.5568447 1.518334,-0.9418243 -0.04816,0.6452908 -0.02824,1.2961226 -1.347094,1.8379844 0.159871,0.072187 0.852517,-0.2262523 1.324262,-0.3710217 -0.05913,0.5338864 -0.204478,1.0420058 -1.563999,1.1872692 0.08948,0.052255 0.85222,-0.073998 1.387051,-0.091328 -0.15934,0.7570686 -0.900921,0.9227673 -1.472671,1.0616928 0.165361,0.075464 0.712543,0.06911 1.073109,0.1027446 -0.119446,0.4846548 -0.741358,0.6431277 -1.250058,0.7934155 0.118662,0.065897 0.406136,0.054311 0.599342,0.045664 -0.479155,0.8897515 -0.969417,0.3382495 -1.478378,0.7762915" />

    <!-- Hex -->
    <path id="hex-outer" fill="url(#goldFace)" stroke="#945F0F" stroke-width="0.18"
        d="M 6.3473251,7.2834407 4.0834645,3.0763339 6.5949956,-0.98778036 11.370387,-0.84478774 13.634248,3.3623191 11.122717,7.4264333 Z"
        transform="matrix(0.9969604,0.60535249,-0.59910229,1.0103817,1.6997529,0.2016292)" />
    <path id="hex-inner" fill="url(#goldFaceInner)" stroke="#784E0F" stroke-width="0.12"
        d="M 8.5889988,8.5728544 5.4775573,6.6646087 5.5744259,3.0158986 8.7827359,1.2754341 11.894177,3.1836798 11.797309,6.83239 Z"
        transform="matrix(1.0816536,0.01915115,-0.01905129,1.0760138,-0.65578225,3.4713189)" />

    <!-- Center plate -->
    <rect x="0.6" y="2.2" width="15.733" height="12.5" rx="1.1" ry="1.1" fill="#000000" fill-opacity=".40" />

    <!-- pulse bars (top & bottom) -->
    <g id="pulse-q" fill="#66CCFF">
        <rect x="1.2" y="1.05" width="14.533" height="0.85" rx="0.42" fill-opacity="0.35" />
        <rect x="1.2" y="15.03" width="14.533" height="0.85" rx="0.42" fill-opacity="0.35" />
    </g>
</svg>
